<svg width="22" height="31" viewBox="0 0 22 31" fill="none" xmlns="http://www.w3.org/2000/svg">
<path fill-rule="evenodd" clip-rule="evenodd" d="M7.67295 19.9665H7.67198C7.33121 19.9678 7.0543 20.4051 7.0543 20.9426C7.0543 21.4809 7.33217 21.919 7.67359 21.919H18.9035C19.2456 21.919 19.5228 22.3561 19.5228 22.8954C19.5228 23.4347 19.2456 23.8718 18.9035 23.8718H7.67359C6.64917 23.8718 5.8157 22.5578 5.8157 20.9426C5.8157 19.7407 6.27743 18.7061 6.9356 18.255L4.69968 2.39125H1.48062C1.13856 2.39125 0.861328 1.95417 0.861328 1.41487C0.861328 0.875563 1.13856 0.438477 1.48062 0.438477H5.19641C5.4867 0.438477 5.73797 0.756311 5.80103 1.20306L6.24373 4.34403H21.3807C21.575 4.34403 21.7581 4.48795 21.8752 4.73255C21.9921 4.97716 22.0295 5.29398 21.9761 5.58867L19.4989 19.2581C19.423 19.6772 19.1799 19.9663 18.9035 19.9663H7.67537L7.67295 19.9665ZM18.4363 18.0133L20.5596 6.29658H6.51884L8.17029 18.0133H18.4363ZM8.78837 30.0391C7.74769 30.0391 6.90099 28.6558 6.90099 26.9557C6.90099 25.2556 7.74769 23.8724 8.78837 23.8724C9.82905 23.8724 10.6757 25.2556 10.6757 26.9557C10.6757 28.6558 9.82905 30.0391 8.78837 30.0391ZM9.4176 26.955C9.4176 26.3884 9.13531 25.9272 8.78848 25.9272C8.44164 25.9272 8.15935 26.3884 8.15935 26.955C8.15935 27.5216 8.44164 27.9828 8.78848 27.9828C9.13531 27.9828 9.4176 27.5216 9.4176 26.955ZM15.9602 26.9557C15.9602 28.6558 16.8069 30.0391 17.8476 30.0391C18.8882 30.0391 19.7349 28.6558 19.7349 26.9557C19.7349 25.2556 18.8882 23.8724 17.8476 23.8724C16.8069 23.8724 15.9602 25.2556 15.9602 26.9557ZM17.8476 25.9272C18.1944 25.9272 18.4767 26.3884 18.4767 26.955C18.4767 27.5216 18.1944 27.9828 17.8476 27.9828C17.5007 27.9828 17.2184 27.5216 17.2184 26.955C17.2184 26.3884 17.5007 25.9272 17.8476 25.9272Z" fill="white"/>
</svg>
